<svg width="250" height="250" viewBox="0 0 250 250" fill="none" xmlns="http://www.w3.org/2000/svg">
<path d="M224.93 111.06L78.6119 173.161C66.4785 178.278 56.2867 180.844 48.045 180.844C38.7116 180.844 31.9365 177.588 27.7365 171.067C25.0948 166.881 24.3198 161.573 25.4031 155.135C26.4865 148.697 29.3698 141.844 34.0365 134.551C37.9282 128.653 42.9033 122.83 48.9867 117.107C62.0534 103.833 79.3119 91.2067 99.6787 81.4878C120.037 71.7856 138.312 66.9344 154.487 66.9344C166.621 66.9344 175.554 70.8137 181.321 78.5638C185.288 83.9134 187.079 90.6584 186.688 98.799C186.296 106.94 183.654 115.853 178.754 125.547L161.946 124.849C164.279 119.499 165.838 114.382 166.613 109.498C167.388 104.614 167.004 100.668 165.446 97.636C163.888 94.6124 160.779 92.9843 156.112 92.9843C149.112 92.9843 140.246 95.5428 129.512 100.668C118.779 105.785 108.212 112.53 97.7787 120.903C87.3536 129.276 78.6452 137.957 71.6452 146.953C64.6451 155.949 60.4451 164.007 59.0451 171.142C58.2701 175.021 58.6534 178.12 60.2117 180.446C61.7701 182.772 64.8784 183.934 69.5452 183.934C74.9869 183.934 82.3786 182.074 91.712 178.352L224.93 111.06Z" fill="white"/>
</svg>
